<?xml version="1.0" encoding="utf-8"?>
<!-- Generator: Adobe Illustrator 19.0.0, SVG Export Plug-In . SVG Version: 6.00 Build 0)  -->
<svg version="1.1" id="Layer_1" xmlns="http://www.w3.org/2000/svg" xmlns:xlink="http://www.w3.org/1999/xlink" x="0px" y="0px"
	 viewBox="0 0 305.5 305.5" style="enable-background:new 0 0 305.5 305.5;" xml:space="preserve">
<style type="text/css">
	.st0{fill:#00A0BA;}
</style>
<g id="XMLID_4_">
	<path id="XMLID_5_" class="st0" d="M289.7,220.7l-46.8,0c-3.1,4.1-6.5,8.1-10.3,11.8c-44,44-115.6,44-159.6,0S29,117,73,73
		c34-34,84.6-41.7,126.1-23.1l29.7-29.7C170.4-13.3,94.5-5.1,44.7,44.7c-59.6,59.6-59.6,156.5,0,216.1s156.5,59.6,216.1,0
		C272.9,248.8,282.5,235.2,289.7,220.7z"/>
	<path id="XMLID_2_" class="st0" d="M260.8,44.7c36.9,36.9,51,88.2,42.1,136H262c6.2-24.6,4.1-50.8-6.4-74.3L181,181l0,0v0.1h-40
		v-42.4l-42.1,42.1l-28.3-28.3L141,82.1h40v42.4L260.8,44.7z"/>
</g>
</svg>
